<?xml version="1.0" encoding="UTF-8"?>
<!DOCTYPE svg PUBLIC "-//W3C//DTD SVG 1.1//EN" "http://www.w3.org/Graphics/SVG/1.1/DTD/svg11.dtd">
<!-- Creator: CorelDRAW (Evaluation Version) -->
<svg xmlns="http://www.w3.org/2000/svg" xml:space="preserve" width="210mm" height="297mm" version="1.1" style="shape-rendering:geometricPrecision; text-rendering:geometricPrecision; image-rendering:optimizeQuality; fill-rule:evenodd; clip-rule:evenodd"
viewBox="0 0 21000 29700"
 xmlns:xlink="http://www.w3.org/1999/xlink"
 xmlns:xodm="http://www.corel.com/coreldraw/odm/2003">
 <defs>
  <style type="text/css">
   <![CDATA[
    .fil0 {fill:#2B2A29;fill-rule:nonzero}
   ]]>
  </style>
 </defs>
 <g id="Layer_x0020_1">
  <metadata id="CorelCorpID_0Corel-Layer"/>
  <g id="_2181994372976">
   <path class="fil0" d="M1592.1 5540.74l0 -303.95 33.87 0 0 28.86c7.97,-11.15 17,-19.55 27.09,-25.12 10.02,-5.57 22.22,-8.39 36.55,-8.39 18.76,0 35.27,4.79 49.6,14.46 14.32,9.59 25.11,23.21 32.45,40.71 7.27,17.57 10.94,36.76 10.94,57.71 0,22.37 -4.02,42.55 -12.07,60.54 -8.04,17.92 -19.75,31.68 -35.13,41.27 -15.31,9.53 -31.47,14.33 -48.4,14.33 -12.42,0 -23.57,-2.61 -33.38,-7.83 -9.87,-5.23 -17.92,-11.79 -24.27,-19.76l0 107.17 -37.25 0zm33.87 -192.75c0,28.15 5.71,48.96 17.07,62.44 11.43,13.47 25.26,20.25 41.49,20.25 16.51,0 30.62,-6.99 42.33,-20.96 11.78,-13.97 17.64,-35.56 17.64,-64.84 0,-27.94 -5.72,-48.82 -17.22,-62.72 -11.5,-13.9 -25.18,-20.82 -41.13,-20.82 -15.8,0 -29.77,7.41 -41.91,22.16 -12.21,14.82 -18.27,36.26 -18.27,64.49zm345.08 80.99c-13.83,11.79 -27.17,20.04 -39.94,24.91 -12.77,4.87 -26.45,7.27 -41.13,7.27 -24.13,0 -42.68,-5.86 -55.67,-17.64 -12.98,-11.71 -19.47,-26.74 -19.47,-45.02 0,-10.72 2.47,-20.53 7.34,-29.42 4.94,-8.89 11.36,-15.94 19.26,-21.31 7.97,-5.36 16.86,-9.45 26.81,-12.2 7.34,-1.91 18.41,-3.74 33.16,-5.58 30.06,-3.52 52.28,-7.83 66.46,-12.77 0.14,-5.08 0.22,-8.32 0.22,-9.66 0,-15.1 -3.53,-25.75 -10.59,-31.96 -9.52,-8.4 -23.7,-12.56 -42.47,-12.56 -17.57,0 -30.55,3.1 -38.88,9.24 -8.39,6.14 -14.53,17 -18.55,32.67l-36.41 -5.08c3.32,-15.59 8.75,-28.22 16.37,-37.82 7.62,-9.6 18.63,-16.93 33.02,-22.15 14.32,-5.15 31.04,-7.76 49.95,-7.76 18.77,0 34.08,2.18 45.86,6.63 11.71,4.44 20.39,9.95 25.9,16.65 5.5,6.7 9.38,15.17 11.64,25.4 1.2,6.35 1.83,17.78 1.83,34.22l0 49.39c0,34.5 0.78,56.3 2.33,65.54 1.48,9.24 4.59,18.06 9.1,26.53l-38.94 0c-3.74,-7.83 -6.14,-17 -7.2,-27.52zm-2.96 -82.55c-13.55,5.51 -33.87,10.16 -60.96,13.97 -15.39,2.19 -26.25,4.66 -32.6,7.41 -6.35,2.75 -11.22,6.78 -14.68,12 -3.45,5.29 -5.22,11.14 -5.22,17.64 0,9.8 3.74,18.06 11.29,24.62 7.55,6.56 18.56,9.88 33.02,9.88 14.32,0 27.09,-3.11 38.31,-9.39 11.15,-6.21 19.41,-14.74 24.63,-25.54 4.02,-8.39 5.99,-20.74 5.99,-37.04l0.22 -13.55zm94.89 110.07l0 -219.71 33.44 0 0 31.19c16.09,-23.92 39.37,-35.84 69.78,-35.84 13.27,0 25.4,2.39 36.48,7.12 11.08,4.73 19.4,11.01 24.9,18.7 5.51,7.69 9.39,16.86 11.58,27.44 1.34,6.92 2.04,18.98 2.04,36.2l0 134.9 -37.25 0 0 -133.49c0,-15.17 -1.41,-26.53 -4.31,-34.01 -2.89,-7.48 -8.04,-13.47 -15.38,-17.99 -7.33,-4.44 -16.01,-6.7 -25.89,-6.7 -15.8,0 -29.42,5.01 -40.92,15.1 -11.5,10.02 -17.22,29.14 -17.22,57.22l0 119.87 -37.25 0zm316.3 -33.23l5.08 32.88c-10.45,2.18 -19.83,3.31 -28.01,3.31 -13.48,0 -23.92,-2.11 -31.4,-6.42 -7.41,-4.3 -12.63,-9.87 -15.66,-16.86 -3.04,-6.98 -4.52,-21.66 -4.52,-44.03l0 -126.57 -27.52 0 0 -28.79 27.52 0 0 -54.33 37.25 -22.36 0 76.69 37.26 0 0 28.79 -37.26 0 0 128.69c0,10.65 0.64,17.5 1.98,20.53 1.27,3.04 3.38,5.43 6.35,7.27 2.96,1.76 7.19,2.68 12.7,2.68 4.09,0 9.52,-0.49 16.23,-1.48zm36.76 33.23l0 -303.1 37.25 0 0 109.07c17.29,-20.25 39.09,-30.33 65.48,-30.33 16.15,0 30.2,3.17 42.19,9.59 11.92,6.42 20.46,15.24 25.61,26.53 5.15,11.29 7.69,27.73 7.69,49.18l0 139.06 -37.25 0 0 -138.92c0,-18.56 -4.02,-32.11 -12,-40.57 -8.04,-8.47 -19.33,-12.7 -34,-12.7 -10.94,0 -21.24,2.82 -30.91,8.54 -9.66,5.71 -16.51,13.47 -20.67,23.28 -4.09,9.74 -6.14,23.21 -6.14,40.43l0 119.94 -37.25 0zm385.3 -71.12l38.52 5.08c-6,22.37 -17.21,39.79 -33.58,52.14 -16.37,12.35 -37.26,18.56 -62.73,18.56 -32.03,0 -57.43,-9.88 -76.2,-29.64 -18.76,-19.68 -28.15,-47.41 -28.15,-83.04 0,-36.83 9.46,-65.47 28.44,-85.79 18.98,-20.39 43.6,-30.55 73.87,-30.55 29.28,0 53.2,9.94 71.75,29.91 18.56,19.97 27.87,48.05 27.87,84.24 0,2.19 -0.07,5.51 -0.21,9.88l-163.62 0c1.41,24.06 8.19,42.55 20.46,55.32 12.21,12.77 27.52,19.19 45.79,19.19 13.62,0 25.26,-3.6 34.86,-10.8 9.66,-7.19 17.28,-18.7 22.93,-34.5zm-121.92 -59.69l122.34 0c-1.62,-18.48 -6.35,-32.31 -14.04,-41.56 -11.78,-14.32 -27.16,-21.52 -46,-21.52 -17.07,0 -31.4,5.72 -43.04,17.15 -11.57,11.43 -17.99,26.74 -19.26,45.93zm193.53 20.96c0,-40.57 11.29,-70.63 33.94,-90.17 18.84,-16.23 41.91,-24.34 69.07,-24.34 30.13,0 54.82,9.87 74.01,29.63 19.12,19.68 28.72,46.99 28.72,81.77 0,28.22 -4.24,50.38 -12.7,66.53 -8.47,16.16 -20.82,28.72 -37.04,37.68 -16.16,8.96 -33.87,13.41 -52.99,13.41 -30.76,0 -55.6,-9.81 -74.58,-29.5 -18.98,-19.68 -28.43,-48.04 -28.43,-85.01zm38.1 0.07c0,28.08 6.14,49.1 18.41,63 12.35,13.97 27.8,20.96 46.5,20.96 18.49,0 33.87,-6.99 46.21,-21.03 12.28,-14.04 18.42,-35.42 18.42,-64.13 0,-27.1 -6.21,-47.63 -18.56,-61.53 -12.34,-13.97 -27.73,-20.95 -46.07,-20.95 -18.7,0 -34.15,6.91 -46.5,20.81 -12.27,13.9 -18.41,34.86 -18.41,62.87zm211.31 109.78l0 -219.71 33.44 0 0 31.19c16.09,-23.92 39.37,-35.84 69.78,-35.84 13.27,0 25.4,2.39 36.48,7.12 11.08,4.73 19.4,11.01 24.9,18.7 5.51,7.69 9.39,16.86 11.58,27.44 1.34,6.92 2.04,18.98 2.04,36.2l0 134.9 -37.25 0 0 -133.49c0,-15.17 -1.41,-26.53 -4.31,-34.01 -2.89,-7.48 -8.04,-13.47 -15.38,-17.99 -7.33,-4.44 -16.01,-6.7 -25.89,-6.7 -15.8,0 -29.42,5.01 -40.92,15.1 -11.5,10.02 -17.22,29.14 -17.22,57.22l0 119.87 -37.25 0zm219.35 -126.58c10.66,-0.28 19.34,-3.1 26.04,-8.6 6.7,-5.44 11.22,-12.91 13.4,-22.37 2.19,-9.52 3.39,-25.75 3.53,-48.75 0.07,-23 0.42,-38.17 1.06,-45.51 1.27,-11.57 3.53,-20.81 6.91,-27.87 3.32,-6.98 7.48,-12.63 12.42,-16.86 4.94,-4.17 11.29,-7.41 18.98,-9.6 5.22,-1.34 13.69,-2.04 25.54,-2.04l11.5 0 0 32.59 -6.35 0c-14.18,0 -23.56,2.61 -28.22,7.76 -4.59,5.15 -6.91,16.65 -6.91,34.58 0,36.05 -0.78,58.84 -2.33,68.36 -2.47,14.75 -6.78,26.11 -12.77,34.08 -6.07,7.97 -15.52,15.1 -28.51,21.24 15.31,6.35 26.39,16.01 33.3,29 6.85,12.98 10.31,34.29 10.31,63.85 0,26.81 0.14,42.75 0.42,47.83 1.13,9.39 3.88,15.88 8.32,19.62 4.52,3.74 13.27,5.57 26.32,5.57l6.42 0 0 32.6 -11.57 0c-13.47,0 -23.28,-1.13 -29.35,-3.32 -8.75,-3.17 -16.09,-8.25 -21.87,-15.38 -5.79,-7.05 -9.53,-16.01 -11.22,-26.88 -1.76,-10.86 -2.68,-28.72 -2.82,-53.48 -0.14,-24.76 -1.34,-41.91 -3.53,-51.36 -2.19,-9.53 -6.56,-17.01 -13.19,-22.51 -6.71,-5.5 -15.24,-8.4 -25.83,-8.68l0 -33.87zm248.5 126.58l-117.13 -303.1 43.47 0 78.74 220.27c6.28,17.64 11.64,34.15 15.87,49.6 4.66,-16.58 10.09,-33.09 16.3,-49.6l81.7 -220.27 40.92 0 -118.18 303.1 -41.69 0zm317.85 -71.12l38.52 5.08c-6,22.37 -17.21,39.79 -33.58,52.14 -16.37,12.35 -37.26,18.56 -62.73,18.56 -32.03,0 -57.43,-9.88 -76.2,-29.64 -18.76,-19.68 -28.15,-47.41 -28.15,-83.04 0,-36.83 9.46,-65.47 28.44,-85.79 18.98,-20.39 43.6,-30.55 73.87,-30.55 29.28,0 53.2,9.94 71.75,29.91 18.56,19.97 27.87,48.05 27.87,84.24 0,2.19 -0.07,5.51 -0.21,9.88l-163.62 0c1.41,24.06 8.19,42.55 20.46,55.32 12.21,12.77 27.52,19.19 45.79,19.19 13.62,0 25.26,-3.6 34.86,-10.8 9.66,-7.19 17.28,-18.7 22.93,-34.5zm-121.92 -59.69l122.34 0c-1.62,-18.48 -6.35,-32.31 -14.04,-41.56 -11.78,-14.32 -27.16,-21.52 -46,-21.52 -17.07,0 -31.4,5.72 -43.04,17.15 -11.57,11.43 -17.99,26.74 -19.26,45.93zm351.01 50.38l36.41 5.08c-4.03,25.04 -14.19,44.59 -30.63,58.77 -16.44,14.18 -36.68,21.24 -60.6,21.24 -29.99,0 -54.12,-9.81 -72.32,-29.42 -18.28,-19.62 -27.38,-47.7 -27.38,-84.25 0,-23.7 3.95,-44.38 11.79,-62.16 7.83,-17.71 19.75,-31.04 35.84,-39.86 16.01,-8.89 33.44,-13.33 52.35,-13.33 23.78,0 43.32,5.99 58.42,18.06 15.17,12.06 24.91,29.21 29.14,51.36l-35.98 5.5c-3.46,-14.74 -9.53,-25.82 -18.35,-33.3 -8.75,-7.41 -19.33,-11.15 -31.75,-11.15 -18.77,0 -34.01,6.71 -45.79,20.11 -11.71,13.48 -17.57,34.65 -17.57,63.71 0,29.5 5.65,50.87 16.94,64.21 11.36,13.33 26.1,20.04 44.23,20.04 14.68,0 26.89,-4.45 36.62,-13.41 9.81,-8.89 16.02,-22.65 18.63,-41.2zm149.86 80.43l0 -267.54 -99.9 0 0 -35.56 240.02 0 0 35.56 -99.9 0 0 267.54 -40.22 0zm166.72 -149.58c0,-35.77 3.67,-64.7 11.01,-86.57 7.4,-21.94 18.34,-38.8 32.88,-50.59 14.46,-11.78 32.73,-17.63 54.75,-17.63 16.22,0 30.48,3.24 42.82,9.8 12.28,6.56 22.44,16.02 30.34,28.37 7.9,12.27 14.11,27.3 18.63,45.01 4.58,17.71 6.84,41.63 6.84,71.61 0,35.56 -3.67,64.35 -10.93,86.22 -7.27,21.94 -18.21,38.81 -32.74,50.66 -14.47,11.85 -32.81,17.78 -54.96,17.78 -29.14,0 -52.07,-10.37 -68.72,-31.19 -19.97,-25.4 -29.92,-66.53 -29.92,-123.47zm38.1 0.14c0,49.89 5.79,83.05 17.43,99.42 11.64,16.44 26.03,24.62 43.11,24.62 17.07,0 31.46,-8.25 43.1,-24.69 11.65,-16.51 17.43,-49.6 17.43,-99.35 0,-49.88 -5.78,-83.04 -17.43,-99.41 -11.57,-16.44 -26.1,-24.62 -43.53,-24.62 -17.07,0 -30.76,7.27 -40.99,21.73 -12.77,18.41 -19.12,52.56 -19.12,102.3zm207.08 149.44l0 -219.71 33.44 0 0 33.66c8.54,-15.6 16.44,-25.9 23.71,-30.84 7.26,-5.01 15.24,-7.47 23.91,-7.47 12.56,0 25.33,3.95 38.32,11.78l-13.27 34.36c-9.03,-5.08 -18.06,-7.62 -27.09,-7.62 -8.12,0 -15.38,2.47 -21.8,7.34 -6.42,4.86 -11.01,11.64 -13.76,20.32 -4.16,13.19 -6.21,27.65 -6.21,43.39l0 114.79 -37.25 0zm107.1 84.24l0 -26.67 246.38 0 0 26.67 -246.38 0zm399.27 -84.24l-37.25 0 0 -237.21c-8.96,8.61 -20.75,17.15 -35.28,25.69 -14.54,8.53 -27.66,14.95 -39.23,19.19l0 -35.99c20.81,-9.73 39.02,-21.59 54.61,-35.56 15.59,-13.9 26.67,-27.37 33.16,-40.49l23.99 0 0 304.37zm105.9 0l0 -219.71 33.44 0 0 31.05c6.85,-10.73 16.02,-19.41 27.45,-25.9 11.43,-6.56 24.41,-9.8 39.02,-9.8 16.22,0 29.56,3.38 39.93,10.08 10.37,6.78 17.71,16.16 21.94,28.3 17.5,-25.61 40.15,-38.38 68.09,-38.38 21.87,0 38.73,5.99 50.44,18.06 11.79,12.06 17.71,30.62 17.71,55.67l0 150.63 -37.25 0 0 -138.29c0,-14.81 -1.27,-25.54 -3.67,-32.1 -2.4,-6.56 -6.77,-11.78 -13.19,-15.8 -6.35,-4.03 -13.83,-6 -22.37,-6 -15.52,0 -28.36,5.15 -38.59,15.38 -10.23,10.3 -15.31,26.74 -15.31,49.32l0 127.49 -37.25 0 0 -142.59c0,-16.51 -3.04,-28.93 -9.11,-37.18 -6.06,-8.26 -16.01,-12.42 -29.77,-12.42 -10.44,0 -20.11,2.75 -29,8.25 -8.89,5.51 -15.31,13.55 -19.33,24.2 -3.95,10.59 -5.93,25.9 -5.93,45.86l0 113.88 -37.25 0zm496.14 -27.52c-13.83,11.79 -27.17,20.04 -39.94,24.91 -12.77,4.87 -26.45,7.27 -41.13,7.27 -24.13,0 -42.68,-5.86 -55.67,-17.64 -12.98,-11.71 -19.47,-26.74 -19.47,-45.02 0,-10.72 2.47,-20.53 7.34,-29.42 4.94,-8.89 11.36,-15.94 19.26,-21.31 7.97,-5.36 16.86,-9.45 26.81,-12.2 7.34,-1.91 18.41,-3.74 33.16,-5.58 30.06,-3.52 52.28,-7.83 66.46,-12.77 0.14,-5.08 0.22,-8.32 0.22,-9.66 0,-15.1 -3.53,-25.75 -10.59,-31.96 -9.52,-8.4 -23.7,-12.56 -42.47,-12.56 -17.57,0 -30.55,3.1 -38.88,9.24 -8.39,6.14 -14.53,17 -18.55,32.67l-36.41 -5.08c3.32,-15.59 8.75,-28.22 16.37,-37.82 7.62,-9.6 18.63,-16.93 33.02,-22.15 14.32,-5.15 31.04,-7.76 49.95,-7.76 18.77,0 34.08,2.18 45.86,6.63 11.71,4.44 20.39,9.95 25.9,16.65 5.5,6.7 9.38,15.17 11.64,25.4 1.2,6.35 1.83,17.78 1.83,34.22l0 49.39c0,34.5 0.78,56.3 2.33,65.54 1.48,9.24 4.59,18.06 9.1,26.53l-38.94 0c-3.74,-7.83 -6.14,-17 -7.2,-27.52zm-2.96 -82.55c-13.55,5.51 -33.87,10.16 -60.96,13.97 -15.39,2.19 -26.25,4.66 -32.6,7.41 -6.35,2.75 -11.22,6.78 -14.68,12 -3.45,5.29 -5.22,11.14 -5.22,17.64 0,9.8 3.74,18.06 11.29,24.62 7.55,6.56 18.56,9.88 33.02,9.88 14.32,0 27.09,-3.11 38.31,-9.39 11.15,-6.21 19.41,-14.74 24.63,-25.54 4.02,-8.39 5.99,-20.74 5.99,-37.04l0.22 -13.55zm241.36 -8.89l0 -35.56 128.27 0 0 112.33c-19.68,15.66 -40,27.51 -60.96,35.42 -20.95,7.9 -42.47,11.85 -64.49,11.85 -29.77,0 -56.79,-6.35 -81.13,-19.12 -24.28,-12.7 -42.69,-31.19 -55.04,-55.25 -12.41,-24.12 -18.62,-51.08 -18.62,-80.78 0,-29.49 6.13,-57.01 18.48,-82.62 12.35,-25.54 30.06,-44.52 53.2,-56.87 23.14,-12.42 49.81,-18.62 80.01,-18.62 21.87,0 41.7,3.52 59.41,10.65 17.71,7.13 31.61,17 41.62,29.63 10.09,12.7 17.71,29.28 22.93,49.67l-36.19 9.88c-4.59,-15.38 -10.23,-27.52 -16.93,-36.41 -6.78,-8.81 -16.37,-15.87 -28.93,-21.16 -12.49,-5.29 -26.39,-7.97 -41.7,-7.97 -18.27,0 -34.08,2.82 -47.48,8.39 -13.34,5.58 -24.06,12.91 -32.32,22.09 -8.18,9.1 -14.53,19.12 -19.05,29.98 -7.69,18.84 -11.57,39.16 -11.57,61.1 0,27.09 4.66,49.74 13.9,68.02 9.32,18.2 22.86,31.75 40.57,40.57 17.78,8.82 36.62,13.26 56.59,13.26 17.35,0 34.29,-3.39 50.8,-10.09 16.51,-6.77 28.99,-13.9 37.53,-21.59l0 -56.8 -88.9 0zm172.65 38.53l37.25 -5.08c4.31,21.16 11.5,36.4 21.73,45.72 10.23,9.31 22.79,13.97 37.68,13.97 17.64,0 32.53,-6.07 44.52,-18.21 11.99,-12.13 17.99,-27.16 17.99,-45.08 0,-17.08 -5.57,-31.19 -16.79,-42.33 -11.15,-11.08 -25.33,-16.65 -42.62,-16.65 -7.05,0 -15.8,1.41 -26.31,4.16l4.16 -32.6c2.47,0.28 4.52,0.42 6,0.42 15.94,0 30.2,-4.16 42.97,-12.41 12.7,-8.26 19.05,-20.96 19.05,-38.1 0,-13.62 -4.66,-24.91 -13.9,-33.87 -9.25,-8.96 -21.17,-13.4 -35.78,-13.4 -14.53,0 -26.59,4.58 -36.26,13.75 -9.67,9.18 -15.88,22.93 -18.63,41.28l-37.25 -6.77c4.59,-24.98 14.89,-44.38 31.04,-58.14 16.09,-13.76 36.2,-20.6 60.19,-20.6 16.51,0 31.75,3.52 45.65,10.65 13.97,7.06 24.62,16.72 31.96,28.93 7.41,12.27 11.08,25.26 11.08,39.01 0,13.06 -3.53,24.91 -10.52,35.63 -7.05,10.73 -17.5,19.27 -31.25,25.62 17.92,4.09 31.82,12.7 41.77,25.75 9.87,12.98 14.81,29.35 14.81,48.89 0,26.46 -9.66,48.97 -28.93,67.38 -19.33,18.42 -43.74,27.59 -73.23,27.59 -26.6,0 -48.68,-7.97 -66.25,-23.85 -17.64,-15.87 -27.66,-36.4 -30.13,-61.66zm323.07 124.03l0 -37.25c-18.56,-2.33 -33.66,-6.49 -45.3,-12.49 -11.64,-6 -21.66,-15.73 -30.12,-29.07 -8.47,-13.4 -13.34,-29.7 -14.75,-49.03l37.25 -7.2c2.9,20.11 7.98,34.85 15.31,44.24 10.45,13.26 23,20.67 37.61,22.22l0 -116.91c-15.31,-3.95 -30.9,-10.44 -46.85,-19.4 -11.85,-6.56 -20.95,-15.73 -27.37,-27.44 -6.43,-11.79 -9.6,-25.05 -9.6,-39.94 0,-26.46 9.38,-47.91 28.08,-64.34 12.49,-11.01 31.12,-17.78 55.74,-20.25l0 -17.78 22.01 0 0 17.78c21.52,2.04 38.6,8.46 51.23,19.12 16.15,13.54 25.89,32.17 29.21,55.81l-38.1 5.92c-2.19,-14.74 -6.78,-26.1 -13.76,-33.94 -6.92,-7.9 -16.44,-13.05 -28.58,-15.59l0 107.25c18.7,4.79 31.05,8.53 37.11,11.14 11.58,5.08 20.96,11.29 28.23,18.63 7.33,7.27 12.91,15.95 16.86,26.03 3.88,10.02 5.85,20.96 5.85,32.67 0,25.75 -8.18,47.2 -24.55,64.49 -16.37,17.21 -37.53,26.39 -63.5,27.66l0 37.67 -22.01 0zm0 -325.96c-14.39,2.19 -25.82,7.97 -34.08,17.43 -8.32,9.38 -12.49,20.46 -12.49,33.3 0,12.7 3.53,23.35 10.59,31.89 7.05,8.54 19.05,15.03 35.98,19.4l0 -102.02zm22.01 257.38c14.47,-1.76 26.39,-8.04 35.84,-18.83 9.39,-10.73 14.12,-24.06 14.12,-39.87 0,-13.54 -3.32,-24.34 -10.02,-32.59 -6.71,-8.19 -20.04,-14.82 -39.94,-19.97l0 111.26zm101.67 109.22l0 -26.67 246.38 0 0 26.67 -246.38 0zm378.53 -84.24l0 -72.39 -131.66 0 0 -34.29 138.43 -196.42 30.48 0 0 196.42 41.06 0 0 34.29 -41.06 0 0 72.39 -37.25 0zm0 -106.68l0 -136.38 -95.04 136.38 95.04 0zm126.22 106.68l0 -219.71 33.44 0 0 33.66c8.54,-15.6 16.44,-25.9 23.71,-30.84 7.26,-5.01 15.24,-7.47 23.91,-7.47 12.56,0 25.33,3.95 38.32,11.78l-13.27 34.36c-9.03,-5.08 -18.06,-7.62 -27.09,-7.62 -8.12,0 -15.38,2.47 -21.8,7.34 -6.42,4.86 -11.01,11.64 -13.76,20.32 -4.16,13.19 -6.21,27.65 -6.21,43.39l0 114.79 -37.25 0zm131.23 -80.43l37.25 -5.08c4.31,21.16 11.5,36.4 21.73,45.72 10.23,9.31 22.79,13.97 37.68,13.97 17.64,0 32.53,-6.07 44.52,-18.21 11.99,-12.13 17.99,-27.16 17.99,-45.08 0,-17.08 -5.57,-31.19 -16.79,-42.33 -11.15,-11.08 -25.33,-16.65 -42.62,-16.65 -7.05,0 -15.8,1.41 -26.31,4.16l4.16 -32.6c2.47,0.28 4.52,0.42 6,0.42 15.94,0 30.2,-4.16 42.97,-12.41 12.7,-8.26 19.05,-20.96 19.05,-38.1 0,-13.62 -4.66,-24.91 -13.9,-33.87 -9.25,-8.96 -21.17,-13.4 -35.78,-13.4 -14.53,0 -26.59,4.58 -36.26,13.75 -9.67,9.18 -15.88,22.93 -18.63,41.28l-37.25 -6.77c4.59,-24.98 14.89,-44.38 31.04,-58.14 16.09,-13.76 36.2,-20.6 60.19,-20.6 16.51,0 31.75,3.52 45.65,10.65 13.97,7.06 24.62,16.72 31.96,28.93 7.41,12.27 11.08,25.26 11.08,39.01 0,13.06 -3.53,24.91 -10.52,35.63 -7.05,10.73 -17.5,19.27 -31.25,25.62 17.92,4.09 31.82,12.7 41.77,25.75 9.87,12.98 14.81,29.35 14.81,48.89 0,26.46 -9.66,48.97 -28.93,67.38 -19.33,18.42 -43.74,27.59 -73.23,27.59 -26.6,0 -48.68,-7.97 -66.25,-23.85 -17.64,-15.87 -27.66,-36.4 -30.13,-61.66zm211.31 164.67l0 -26.67 246.38 0 0 26.67 -246.38 0zm268.88 -84.24l0 -303.1 37.26 0 0 303.1 -37.26 0zm84.74 -149.58c0,-35.77 3.67,-64.7 11.01,-86.57 7.4,-21.94 18.34,-38.8 32.88,-50.59 14.46,-11.78 32.73,-17.63 54.75,-17.63 16.22,0 30.48,3.24 42.82,9.8 12.28,6.56 22.44,16.02 30.34,28.37 7.9,12.27 14.11,27.3 18.63,45.01 4.58,17.71 6.84,41.63 6.84,71.61 0,35.56 -3.67,64.35 -10.93,86.22 -7.27,21.94 -18.21,38.81 -32.74,50.66 -14.47,11.85 -32.81,17.78 -54.96,17.78 -29.14,0 -52.07,-10.37 -68.72,-31.19 -19.97,-25.4 -29.92,-66.53 -29.92,-123.47zm38.1 0.14c0,49.89 5.79,83.05 17.43,99.42 11.64,16.44 26.03,24.62 43.11,24.62 17.07,0 31.46,-8.25 43.1,-24.69 11.65,-16.51 17.43,-49.6 17.43,-99.35 0,-49.88 -5.78,-83.04 -17.43,-99.41 -11.57,-16.44 -26.1,-24.62 -43.53,-24.62 -17.07,0 -30.76,7.27 -40.99,21.73 -12.77,18.41 -19.12,52.56 -19.12,102.3zm192.68 83.82l36.83 -5.92c2.05,14.74 7.83,26.03 17.29,33.93 9.45,7.84 22.72,11.79 39.65,11.79 17.15,0 29.85,-3.46 38.17,-10.45 8.26,-6.91 12.42,-15.09 12.42,-24.48 0,-8.39 -3.74,-15.03 -11.15,-19.82 -5.22,-3.32 -17.92,-7.48 -38.1,-12.63 -27.23,-6.85 -46.07,-12.77 -56.65,-17.78 -10.52,-5.08 -18.49,-12 -23.92,-20.89 -5.44,-8.82 -8.19,-18.62 -8.19,-29.35 0,-9.81 2.26,-18.84 6.71,-27.16 4.51,-8.33 10.58,-15.24 18.27,-20.75 5.79,-4.23 13.69,-7.83 23.64,-10.79 10.01,-2.96 20.67,-4.44 32.1,-4.44 17.21,0 32.31,2.46 45.29,7.47 13.06,4.94 22.65,11.72 28.86,20.18 6.14,8.54 10.44,19.9 12.77,34.15l-36.4 5.08c-1.63,-11.43 -6.43,-20.39 -14.33,-26.81 -7.9,-6.42 -19.05,-9.6 -33.51,-9.6 -17,0 -29.21,2.83 -36.48,8.47 -7.26,5.65 -10.93,12.28 -10.93,19.83 0,4.8 1.48,9.17 4.51,13.05 3.04,3.95 7.76,7.27 14.25,9.88 3.74,1.41 14.61,4.58 32.81,9.52 26.25,6.99 44.59,12.77 55.03,17.22 10.45,4.44 18.63,11 24.56,19.47 6,8.54 8.96,19.12 8.96,31.82 0,12.35 -3.6,23.99 -10.87,34.93 -7.26,10.93 -17.71,19.4 -31.32,25.4 -13.69,5.99 -29.14,8.96 -46.36,8.96 -28.5,0 -50.3,-5.93 -65.26,-17.71 -14.96,-11.86 -24.48,-29.35 -28.65,-52.57zm211.67 0l36.83 -5.92c2.05,14.74 7.83,26.03 17.29,33.93 9.45,7.84 22.72,11.79 39.65,11.79 17.15,0 29.85,-3.46 38.17,-10.45 8.26,-6.91 12.42,-15.09 12.42,-24.48 0,-8.39 -3.74,-15.03 -11.15,-19.82 -5.22,-3.32 -17.92,-7.48 -38.1,-12.63 -27.23,-6.85 -46.07,-12.77 -56.65,-17.78 -10.52,-5.08 -18.49,-12 -23.92,-20.89 -5.44,-8.82 -8.19,-18.62 -8.19,-29.35 0,-9.81 2.26,-18.84 6.71,-27.16 4.51,-8.33 10.58,-15.24 18.27,-20.75 5.79,-4.23 13.69,-7.83 23.64,-10.79 10.01,-2.96 20.67,-4.44 32.1,-4.44 17.21,0 32.31,2.46 45.29,7.47 13.06,4.94 22.65,11.72 28.86,20.18 6.14,8.54 10.44,19.9 12.77,34.15l-36.4 5.08c-1.63,-11.43 -6.43,-20.39 -14.33,-26.81 -7.9,-6.42 -19.05,-9.6 -33.51,-9.6 -17,0 -29.21,2.83 -36.48,8.47 -7.26,5.65 -10.93,12.28 -10.93,19.83 0,4.8 1.48,9.17 4.51,13.05 3.04,3.95 7.76,7.27 14.25,9.88 3.74,1.41 14.61,4.58 32.81,9.52 26.25,6.99 44.59,12.77 55.03,17.22 10.45,4.44 18.63,11 24.56,19.47 6,8.54 8.96,19.12 8.96,31.82 0,12.35 -3.6,23.99 -10.87,34.93 -7.26,10.93 -17.71,19.4 -31.32,25.4 -13.69,5.99 -29.14,8.96 -46.36,8.96 -28.5,0 -50.3,-5.93 -65.26,-17.71 -14.96,-11.86 -24.48,-29.35 -28.65,-52.57zm225.64 65.62l0 -303.1 37.26 0 0 303.1 -37.26 0zm244.76 -71.12l38.52 5.08c-6,22.37 -17.21,39.79 -33.58,52.14 -16.37,12.35 -37.26,18.56 -62.73,18.56 -32.03,0 -57.43,-9.88 -76.2,-29.64 -18.76,-19.68 -28.15,-47.41 -28.15,-83.04 0,-36.83 9.46,-65.47 28.44,-85.79 18.98,-20.39 43.6,-30.55 73.87,-30.55 29.28,0 53.2,9.94 71.75,29.91 18.56,19.97 27.87,48.05 27.87,84.24 0,2.19 -0.07,5.51 -0.21,9.88l-163.62 0c1.41,24.06 8.19,42.55 20.46,55.32 12.21,12.77 27.52,19.19 45.79,19.19 13.62,0 25.26,-3.6 34.86,-10.8 9.66,-7.19 17.28,-18.7 22.93,-34.5zm-121.92 -59.69l122.34 0c-1.62,-18.48 -6.35,-32.31 -14.04,-41.56 -11.78,-14.32 -27.16,-21.52 -46,-21.52 -17.07,0 -31.4,5.72 -43.04,17.15 -11.57,11.43 -17.99,26.74 -19.26,45.93z"/>
   <path class="fil0" d="M8941.93 5500.1l0 -37.25c-18.56,-2.33 -33.66,-6.49 -45.3,-12.49 -11.64,-6 -21.66,-15.73 -30.12,-29.07 -8.47,-13.4 -13.34,-29.7 -14.75,-49.03l37.25 -7.2c2.9,20.11 7.98,34.85 15.31,44.24 10.45,13.26 23,20.67 37.61,22.22l0 -116.91c-15.31,-3.95 -30.9,-10.44 -46.85,-19.4 -11.85,-6.56 -20.95,-15.73 -27.37,-27.44 -6.43,-11.79 -9.6,-25.05 -9.6,-39.94 0,-26.46 9.38,-47.91 28.08,-64.34 12.49,-11.01 31.12,-17.78 55.74,-20.25l0 -17.78 22.01 0 0 17.78c21.52,2.04 38.6,8.46 51.23,19.12 16.15,13.54 25.89,32.17 29.21,55.81l-38.1 5.92c-2.19,-14.74 -6.78,-26.1 -13.76,-33.94 -6.92,-7.9 -16.44,-13.05 -28.58,-15.59l0 107.25c18.7,4.79 31.05,8.53 37.11,11.14 11.58,5.08 20.96,11.29 28.23,18.63 7.33,7.27 12.91,15.95 16.86,26.03 3.88,10.02 5.85,20.96 5.85,32.67 0,25.75 -8.18,47.2 -24.55,64.49 -16.37,17.21 -37.53,26.39 -63.5,27.66l0 37.67 -22.01 0zm0 -325.96c-14.39,2.19 -25.82,7.97 -34.08,17.43 -8.32,9.38 -12.49,20.46 -12.49,33.3 0,12.7 3.53,23.35 10.59,31.89 7.05,8.54 19.05,15.03 35.98,19.4l0 -102.02zm22.01 257.38c14.47,-1.76 26.39,-8.04 35.84,-18.83 9.39,-10.73 14.12,-24.06 14.12,-39.87 0,-13.54 -3.32,-24.34 -10.02,-32.59 -6.71,-8.19 -20.04,-14.82 -39.94,-19.97l0 111.26zm213.43 68.58l0 -37.25c-18.56,-2.33 -33.66,-6.49 -45.3,-12.49 -11.64,-6 -21.66,-15.73 -30.12,-29.07 -8.47,-13.4 -13.34,-29.7 -14.75,-49.03l37.25 -7.2c2.9,20.11 7.98,34.85 15.31,44.24 10.45,13.26 23,20.67 37.61,22.22l0 -116.91c-15.31,-3.95 -30.9,-10.44 -46.85,-19.4 -11.85,-6.56 -20.95,-15.73 -27.37,-27.44 -6.43,-11.79 -9.6,-25.05 -9.6,-39.94 0,-26.46 9.38,-47.91 28.08,-64.34 12.49,-11.01 31.12,-17.78 55.74,-20.25l0 -17.78 22.01 0 0 17.78c21.52,2.04 38.6,8.46 51.23,19.12 16.15,13.54 25.89,32.17 29.21,55.81l-38.1 5.92c-2.19,-14.74 -6.78,-26.1 -13.76,-33.94 -6.92,-7.9 -16.44,-13.05 -28.58,-15.59l0 107.25c18.7,4.79 31.05,8.53 37.11,11.14 11.58,5.08 20.96,11.29 28.23,18.63 7.33,7.27 12.91,15.95 16.86,26.03 3.88,10.02 5.85,20.96 5.85,32.67 0,25.75 -8.18,47.2 -24.55,64.49 -16.37,17.21 -37.53,26.39 -63.5,27.66l0 37.67 -22.01 0zm0 -325.96c-14.39,2.19 -25.82,7.97 -34.08,17.43 -8.32,9.38 -12.49,20.46 -12.49,33.3 0,12.7 3.53,23.35 10.59,31.89 7.05,8.54 19.05,15.03 35.98,19.4l0 -102.02zm22.01 257.38c14.47,-1.76 26.39,-8.04 35.84,-18.83 9.39,-10.73 14.12,-24.06 14.12,-39.87 0,-13.54 -3.32,-24.34 -10.02,-32.59 -6.71,-8.19 -20.04,-14.82 -39.94,-19.97l0 111.26zm101.67 109.22l0 -26.67 246.38 0 0 26.67 -246.38 0zm454.72 -119.8l0 35.56 -200.65 0c-0.29,-8.96 1.2,-17.57 4.37,-25.89 5.15,-13.62 13.41,-27.1 24.77,-40.29 11.36,-13.19 27.58,-28.43 48.68,-45.72 32.81,-27.02 55.1,-48.4 66.74,-64.21 11.72,-15.8 17.57,-30.76 17.57,-44.87 0,-14.74 -5.29,-27.16 -15.87,-37.32 -10.59,-10.09 -24.41,-15.17 -41.42,-15.17 -17.99,0 -32.38,5.36 -43.18,16.09 -10.79,10.65 -16.23,25.47 -16.37,44.45l-38.1 -3.81c2.61,-28.51 12.49,-50.24 29.57,-65.2 17.14,-14.96 40.07,-22.43 68.93,-22.43 29.07,0 52.14,8.04 69.07,24.2 17.01,16.15 25.47,36.19 25.47,60.04 0,12.13 -2.47,24.06 -7.48,35.77 -4.94,11.78 -13.19,24.13 -24.69,37.11 -11.57,12.91 -30.69,30.76 -57.36,53.34 -22.37,18.77 -36.76,31.47 -43.11,38.17 -6.35,6.7 -11.57,13.41 -15.74,20.18l148.8 0zm45.79 -34.71l35.56 -2.97c3.04,16.8 8.82,28.93 17.36,36.48 8.54,7.55 19.47,11.36 32.88,11.36 11.43,0 21.45,-2.61 30.13,-7.9 8.67,-5.22 15.73,-12.21 21.16,-21.03 5.43,-8.75 10.02,-20.6 13.76,-35.49 3.74,-14.88 5.57,-30.05 5.57,-45.5 0,-1.63 -0.07,-4.17 -0.21,-7.48 -7.41,11.85 -17.57,21.52 -30.41,28.85 -12.84,7.41 -26.81,11.08 -41.77,11.08 -25.04,0 -46.21,-9.1 -63.57,-27.3 -17.28,-18.14 -25.96,-42.13 -25.96,-71.9 0,-30.76 9.03,-55.46 27.16,-74.22 18.07,-18.7 40.71,-28.08 68.02,-28.08 19.61,0 37.6,5.29 53.97,15.94 16.3,10.58 28.65,25.68 37.12,45.37 8.46,19.61 12.69,48.05 12.69,85.23 0,38.73 -4.16,69.57 -12.55,92.5 -8.4,23 -20.96,40.42 -37.54,52.42 -16.58,11.99 -35.98,17.99 -58.28,17.99 -23.7,0 -43.04,-6.56 -58.06,-19.76 -14.96,-13.19 -23.99,-31.75 -27.03,-55.59zm151.98 -133.7c0,-21.31 -5.65,-38.25 -16.93,-50.73 -11.22,-12.49 -24.91,-18.77 -41,-18.77 -16.65,0 -31.04,6.7 -43.18,20.18 -12.2,13.47 -18.27,30.97 -18.27,52.42 0,19.26 5.79,34.92 17.29,46.92 11.57,12.06 25.96,18.06 43.1,18.06 17.22,0 31.33,-6 42.41,-18.06 11.08,-12 16.58,-28.72 16.58,-50.02zm77.96 123.54l37.25 -5.08c4.31,21.16 11.5,36.4 21.73,45.72 10.23,9.31 22.79,13.97 37.68,13.97 17.64,0 32.53,-6.07 44.52,-18.21 11.99,-12.13 17.99,-27.16 17.99,-45.08 0,-17.08 -5.57,-31.19 -16.79,-42.33 -11.15,-11.08 -25.33,-16.65 -42.62,-16.65 -7.05,0 -15.8,1.41 -26.31,4.16l4.16 -32.6c2.47,0.28 4.52,0.42 6,0.42 15.94,0 30.2,-4.16 42.97,-12.41 12.7,-8.26 19.05,-20.96 19.05,-38.1 0,-13.62 -4.66,-24.91 -13.9,-33.87 -9.25,-8.96 -21.17,-13.4 -35.78,-13.4 -14.53,0 -26.59,4.58 -36.26,13.75 -9.67,9.18 -15.88,22.93 -18.63,41.28l-37.25 -6.77c4.59,-24.98 14.89,-44.38 31.04,-58.14 16.09,-13.76 36.2,-20.6 60.19,-20.6 16.51,0 31.75,3.52 45.65,10.65 13.97,7.06 24.62,16.72 31.96,28.93 7.41,12.27 11.08,25.26 11.08,39.01 0,13.06 -3.53,24.91 -10.52,35.63 -7.05,10.73 -17.5,19.27 -31.25,25.62 17.92,4.09 31.82,12.7 41.77,25.75 9.87,12.98 14.81,29.35 14.81,48.89 0,26.46 -9.66,48.97 -28.93,67.38 -19.33,18.42 -43.74,27.59 -73.23,27.59 -26.6,0 -48.68,-7.97 -66.25,-23.85 -17.64,-15.87 -27.66,-36.4 -30.13,-61.66zm354.4 80.43l0 -72.39 -131.66 0 0 -34.29 138.43 -196.42 30.48 0 0 196.42 41.06 0 0 34.29 -41.06 0 0 72.39 -37.25 0zm0 -106.68l0 -136.38 -95.04 136.38 95.04 0zm228.24 -19.9l0 33.87c-10.65,0.28 -19.33,3.18 -26.04,8.68 -6.7,5.5 -11.21,12.98 -13.4,22.36 -2.19,9.46 -3.39,25.62 -3.53,48.62 -0.07,23 -0.42,38.1 -1.06,45.43 -1.27,11.65 -3.53,20.96 -6.91,27.94 -3.39,6.92 -7.55,12.49 -12.56,16.73 -4.94,4.16 -11.29,7.4 -19.05,9.59 -5.22,1.48 -13.76,2.26 -25.68,2.26l-11.57 0 0 -32.6 6.42 0c14.32,0 23.77,-2.61 28.5,-7.76 4.66,-5.15 6.99,-16.72 6.99,-34.71 0,-34.43 0.56,-56.16 1.69,-65.41 2.19,-15.24 6.63,-27.44 13.26,-36.61 6.71,-9.18 16.09,-16.23 28.3,-21.38 -16.02,-7.55 -27.31,-17.57 -33.87,-29.99 -6.56,-12.49 -9.81,-33.51 -9.81,-63.14 0,-26.82 -0.14,-42.9 -0.42,-48.12 -0.99,-9.18 -3.67,-15.67 -8.18,-19.26 -4.52,-3.67 -13.34,-5.51 -26.46,-5.51l-6.42 0 0 -32.59 11.57 0c13.47,0 23.28,1.12 29.35,3.31 8.82,3.04 16.09,8.12 21.87,15.31 5.79,7.13 9.53,16.16 11.22,27.02 1.76,10.87 2.68,28.72 2.82,53.56 0.14,24.76 1.34,41.91 3.53,51.29 2.19,9.45 6.7,16.93 13.4,22.44 6.71,5.5 15.39,8.39 26.04,8.67z"/>
  </g>
 </g>
</svg>
